HIERARCHY
ROOT Hips
{
	OFFSET 0.000000 0.000000 0.000000
	CHANNELS 6 Xposition Yposition Zposition Xrotation Yrotation Zrotation
	JOINT LeftUpLeg_virtual
	{
		OFFSET 0.000000 0.000000 0.000000
		CHANNELS 3 Xrotation Yrotation Zrotation
		JOINT LeftUpLeg
		{
			OFFSET 11.394100 -6.187798 -0.413800
			CHANNELS 3 Xrotation Yrotation Zrotation
			JOINT LeftLeg
			{
				OFFSET 0.430247 -32.302673 3.732800
				CHANNELS 3 Xrotation Yrotation Zrotation
				JOINT LeftFoot
				{
					OFFSET -0.430247 -48.264931 -6.423300
					CHANNELS 3 Xrotation Yrotation Zrotation
					JOINT LeftToeBase
					{
						OFFSET 4.230900 -16.068199 23.438400
						CHANNELS 3 Xrotation Yrotation Zrotation
						JOINT LeftToe_End
						{
							OFFSET 4.510700 0.695400 19.974600
							CHANNELS 3 Xrotation Yrotation Zrotation
							End Site
							{
								OFFSET 0 0 0
							}
						}
					}
				}
			}
		}
	}
	JOINT RightUpLeg_virtual
	{
		OFFSET 0.000000 0.000000 0.000000
		CHANNELS 3 Xrotation Yrotation Zrotation
		JOINT RightUpLeg
		{
			OFFSET -11.333700 -6.187798 -0.413800
			CHANNELS 3 Xrotation Yrotation Zrotation
			JOINT RightLeg
			{
				OFFSET -0.430392 -32.302628 3.733000
				CHANNELS 3 Xrotation Yrotation Zrotation
				JOINT RightFoot
				{
					OFFSET 0.430392 -48.264973 -6.423500
					CHANNELS 3 Xrotation Yrotation Zrotation
					JOINT RightToeBase
					{
						OFFSET -4.230900 -16.068199 23.438400
						CHANNELS 3 Xrotation Yrotation Zrotation
						JOINT RightToe_End
						{
							OFFSET -4.510700 0.695400 19.974600
							CHANNELS 3 Xrotation Yrotation Zrotation
							End Site
							{
								OFFSET 0 0 0
							}
						}
					}
				}
			}
		}
	}
	JOINT Spine_virtual
	{
		OFFSET 0.000000 0.000000 0.000000
		CHANNELS 3 Xrotation Yrotation Zrotation
		JOINT Spine
		{
			OFFSET -0.002400 12.777504 0.315300
			CHANNELS 3 Xrotation Yrotation Zrotation
			JOINT Spine1
			{
				OFFSET -0.002067 5.816869 0.032633
				CHANNELS 3 Xrotation Yrotation Zrotation
				JOINT Spine1_split
				{
					OFFSET -0.002067 5.816869 0.032633
					CHANNELS 3 Xrotation Yrotation Zrotation
					JOINT Spine2
					{
						OFFSET -0.002067 5.816869 0.032633
						CHANNELS 3 Xrotation Yrotation Zrotation
						JOINT Neck_virtual
						{
							OFFSET 0.000000 0.000000 0.000000
							CHANNELS 3 Xrotation Yrotation Zrotation
							JOINT Neck
							{
								OFFSET -0.003700 21.199493 -0.826900
								CHANNELS 3 Xrotation Yrotation Zrotation
								JOINT Head
								{
									OFFSET 0.000000 20.442200 4.834800
									CHANNELS 3 Xrotation Yrotation Zrotation
									JOINT HeadTop_End
									{
										OFFSET 0.000000 34.668396 4.968400
										CHANNELS 3 Xrotation Yrotation Zrotation
										End Site
										{
											OFFSET 0 0 0
										}
									}
								}
							}
						}
						JOINT LeftShoulder_virtual
						{
							OFFSET 0.000000 0.000000 0.000000
							CHANNELS 3 Xrotation Yrotation Zrotation
							JOINT LeftShoulder
							{
								OFFSET 3.288150 8.794197 -1.372250
								CHANNELS 3 Xrotation Yrotation Zrotation
								JOINT LeftShoulder_split
								{
									OFFSET 3.288150 8.794197 -1.372250
									CHANNELS 3 Xrotation Yrotation Zrotation
									JOINT LeftArm
									{
										OFFSET 11.953299 -2.279007 -0.146200
										CHANNELS 3 Xrotation Yrotation Zrotation
										JOINT LeftForeArm
										{
											OFFSET 18.448900 0.000000 0.000000
											CHANNELS 3 Xrotation Yrotation Zrotation
											JOINT LeftHand
											{
												OFFSET 29.527798 0.000000 0.000000
												CHANNELS 3 Xrotation Yrotation Zrotation
												End Site
												{
													OFFSET 0 0 0
												}
											}
										}
									}
								}
							}
						}
						JOINT RightShoulder_virtual
						{
							OFFSET 0.000000 0.000000 0.000000
							CHANNELS 3 Xrotation Yrotation Zrotation
							JOINT RightShoulder
							{
								OFFSET -3.249400 8.794197 -1.372250
								CHANNELS 3 Xrotation Yrotation Zrotation
								JOINT RightShoulder_split
								{
									OFFSET -3.249400 8.794197 -1.372250
									CHANNELS 3 Xrotation Yrotation Zrotation
									JOINT RightArm
									{
										OFFSET -11.953299 -2.279007 -0.146200
										CHANNELS 3 Xrotation Yrotation Zrotation
										JOINT RightForeArm
										{
											OFFSET -18.448900 0.000000 0.000000
											CHANNELS 3 Xrotation Yrotation Zrotation
											JOINT RightHand
											{
												OFFSET -29.527802 0.000000 0.000000
												CHANNELS 3 Xrotation Yrotation Zrotation
												End Site
												{
													OFFSET 0 0 0
												}
											}
										}
									}
								}
							}
						}
					}
				}
			}
		}
	}
}
MOTION
Frames: 6
Frame Time: 0.03333333
2.373204 96.831169 6.761925 0.000000 0.000000 0.000000 -29.451810 -42.022978 -19.017465 -3.077689 10.550959 4.102541 32.661985 1.978518 -3.277229 -11.133210 5.811411 3.028098 -5.054599 0.524676 -0.313987 0.000000 0.000000 0.000000 -27.455211 -40.195192 -18.058633 11.535473 -9.273330 -7.147571 20.116481 7.091335 -4.061587 -11.896369 -14.173302 7.688931 -4.595220 0.046027 -0.178994 0.000000 0.000000 0.000000 -28.869386 -41.205889 -19.304900 11.178669 -4.517411 0.507058 3.120017 -1.373038 0.011126 0.614483 1.157677 0.078452 0.000000 0.000000 0.000000 3.622194 -2.150014 -0.034372 1.825165 1.878102 -3.287542 -6.693390 -1.331361 4.231994 0.000000 0.000000 0.000000 3.515804 -2.495803 0.169236 0.943651 -15.295102 -10.999834 0.700252 -1.499845 -0.522008 -21.081977 0.343786 -38.883977 2.225742 -67.570699 2.048442 0.000000 0.000000 0.000000 2.519618 -2.503413 0.074853 -0.023841 11.374488 16.063548 1.474582 3.416372 -2.053669 -10.201120 -7.285286 62.244040 -0.254185 42.074105 1.245376 0.000000 0.000000 0.000000 
3.060054 96.703941 7.755402 0.000000 0.000000 0.000000 -30.485443 -44.461267 -20.682496 -1.726006 12.259668 4.548258 31.021579 2.056217 -5.036448 -11.811608 7.517346 6.286997 -5.078391 0.349090 0.180299 0.000000 0.000000 0.000000 -28.193879 -41.721825 -19.278033 10.723990 -9.566498 -7.713757 20.301026 7.445068 -4.959329 -10.450148 -13.890876 8.545233 -4.318165 0.097420 -0.756403 0.000000 0.000000 0.000000 -29.931887 -42.892587 -20.671154 11.241582 -4.510817 0.366555 3.154548 -1.340854 -0.025595 0.535152 1.054982 0.064145 0.000000 0.000000 0.000000 3.557397 -2.117754 -0.036656 1.920234 1.847134 -3.292223 -6.526308 -1.098420 3.978181 0.000000 0.000000 0.000000 3.543480 -2.447227 0.164276 0.993052 -15.392315 -10.961427 0.621534 -1.528871 -0.510568 -20.885800 0.344260 -38.862141 2.222061 -67.684880 2.031109 0.000000 0.000000 0.000000 2.620882 -2.432349 0.067013 0.020428 11.307229 16.044468 1.414033 3.490390 -1.965444 -10.175987 -7.344655 62.389243 -0.200686 41.979213 1.213757 0.000000 0.000000 0.000000 
3.693366 96.582047 8.736870 0.000000 0.000000 0.000000 -31.809014 -46.763734 -22.506769 -0.617682 13.373129 4.776397 29.795058 2.089478 -6.485052 -12.712746 9.252568 8.867979 -4.832144 0.216964 0.368259 0.000000 0.000000 0.000000 -28.995075 -43.179384 -20.497299 9.819781 -9.581044 -8.170646 20.676916 7.194280 -5.823713 -9.045039 -13.952582 8.734079 -4.000120 0.188167 -0.927664 0.000000 0.000000 0.000000 -31.132289 -44.463094 -22.170273 11.243623 -4.450640 0.185194 3.196599 -1.302987 -0.034082 0.503794 0.948173 0.096487 0.000000 0.000000 0.000000 3.529239 -2.093770 -0.025747 2.054155 1.791724 -3.298016 -6.371685 -0.991489 3.795085 0.000000 0.000000 0.000000 3.623707 -2.411363 0.175353 1.067147 -15.437315 -10.829572 0.504028 -1.614612 -0.583031 -20.712948 0.313769 -38.910256 2.229080 -67.748926 2.041205 0.000000 0.000000 0.000000 2.768999 -2.371019 0.085950 0.051598 11.267062 16.033751 1.426507 3.557457 -1.867381 -10.077557 -7.420050 62.399037 -0.155397 42.158738 1.178797 0.000000 0.000000 0.000000 
4.242430 96.554016 9.671486 0.000000 0.000000 0.000000 -33.216450 -48.588798 -24.302879 0.148424 13.873217 4.801855 28.938357 2.068277 -7.514273 -13.558634 10.913157 10.632363 -4.268514 0.175423 0.187010 0.000000 0.000000 0.000000 -29.963077 -44.717897 -21.842580 8.874354 -9.264535 -8.368733 21.227553 6.333318 -6.603530 -7.660622 -14.284450 8.355735 -4.034448 0.285324 -0.684161 0.000000 0.000000 0.000000 -32.477369 -45.960824 -23.800240 11.176542 -4.349274 0.005577 3.249977 -1.286360 -0.009224 0.573123 0.799914 0.241684 0.000000 0.000000 0.000000 3.556611 -2.084870 0.008159 2.155639 1.712461 -3.281296 -6.346359 -1.014911 3.693400 0.000000 0.000000 0.000000 3.738598 -2.400096 0.201655 1.146452 -15.435311 -10.643272 0.407074 -1.716558 -0.724171 -20.669836 0.307304 -39.013101 2.279328 -67.827836 2.118600 0.000000 0.000000 0.000000 2.920211 -2.338849 0.125221 0.059366 11.253512 16.061461 1.499972 3.645856 -1.774781 -9.956471 -7.509133 62.239054 -0.138699 42.498899 1.153204 0.000000 0.000000 0.000000 
4.696334 96.679146 10.493668 0.000000 0.000000 0.000000 -34.660048 -50.003023 -26.112539 0.754524 14.065197 4.647602 28.255589 2.211082 -8.141246 -14.084801 12.429209 11.679618 -3.680920 0.222709 -0.244886 0.000000 0.000000 0.000000 -31.095348 -46.349701 -23.350204 7.888527 -8.634800 -8.184617 21.968059 5.088763 -7.255345 -6.565078 -14.717920 7.717211 -4.617839 0.367554 -0.181123 0.000000 0.000000 0.000000 -33.872298 -47.439444 -25.519204 11.086489 -4.229457 -0.131060 3.291290 -1.291509 0.031883 0.655879 0.661834 0.390012 0.000000 0.000000 0.000000 3.638247 -2.092585 0.056855 2.166087 1.601522 -3.240633 -6.468620 -1.121423 3.675381 0.000000 0.000000 0.000000 3.851872 -2.405218 0.235483 1.208937 -15.394343 -10.474813 0.418980 -1.827196 -0.860575 -20.792761 0.321308 -39.156901 2.382556 -67.948429 2.273931 0.000000 0.000000 0.000000 3.037717 -2.339905 0.172227 0.039290 11.266731 16.154996 1.644756 3.793235 -1.712275 -9.865280 -7.591921 61.955799 -0.162835 42.866117 1.146616 0.000000 0.000000 0.000000 
5.136050 96.916252 11.257854 0.000000 0.000000 0.000000 -36.257523 -51.271867 -28.065430 1.234667 14.228680 4.394323 27.719056 2.556528 -8.462946 -14.198250 13.774955 12.134153 -3.239069 0.329921 -0.756347 0.000000 0.000000 0.000000 -32.567049 -48.059304 -25.142485 6.862370 -7.860992 -7.637692 23.140565 3.605073 -7.693079 -6.086405 -15.067575 6.929234 -5.461461 0.415621 0.411050 0.000000 0.000000 0.000000 -35.382429 -48.993910 -27.366558 11.008417 -4.122578 -0.216800 3.305705 -1.319436 0.067028 0.751865 0.491668 0.459661 0.000000 0.000000 0.000000 3.752854 -2.109016 0.107436 2.081940 1.499403 -3.185071 -6.683821 -1.250643 3.723146 0.000000 0.000000 0.000000 3.933640 -2.421086 0.261414 1.233713 -15.374387 -10.384727 0.546522 -1.898697 -0.921249 -21.044858 0.358584 -39.323004 2.512648 -68.075327 2.473203 0.000000 0.000000 0.000000 3.102254 -2.367723 0.205851 -0.001943 11.308282 16.295457 1.814949 4.001537 -1.682299 -9.823058 -7.665163 61.660250 -0.215993 43.120261 1.162533 0.000000 0.000000 0.000000 
